<svg xmlns="http://www.w3.org/2000/svg" viewBox="0 0 675.5 290.1"><defs><style>.cls-1{fill:#2b422d;}.cls-2{fill:#c69436;}.cls-3,.cls-4{fill:#fff;}.cls-4{fill-rule:evenodd;}</style></defs><g id="Livello_2" data-name="Livello 2"><g id="Livello_1-2" data-name="Livello 1"><path class="cls-1" d="M594.11,217.64c-30.39,0-55.21-5.58-75.29-26.21l31.23-31.23c10.32,10.32,28.44,13.94,44.33,13.94,19.24,0,28.45-6.41,28.45-17.84,0-4.74-1.13-8.65-3.91-11.71-2.51-2.51-6.69-4.46-13.1-5.3l-24-3.35c-17.56-2.5-31-8.36-39.87-17.56-9.2-9.48-13.66-22.86-13.66-39.87,0-36.24,27.32-62.73,72.49-62.73,28.44,0,49.9,6.69,66.91,23.7L637,70.15c-12.55-12.55-29-11.71-37.64-11.71-17,0-24,9.76-24,18.4a13,13,0,0,0,3.9,9.2c2.51,2.51,6.69,5,13.66,5.86l24,3.34c17.84,2.51,30.66,8.09,39,16.45,10.6,10.32,14.78,25.09,14.78,43.49C670.78,195.61,635.92,217.64,594.11,217.64Z"/><path class="cls-1" d="M.93,216V17.46h135V61H49.73V94.12h73.6v43.49H49.73v34.85h86.15V216Z"/><path class="cls-1" d="M224.1,17.46H145.47V216h48.8V145.15H224.1c44,0,67.75-31.23,67.75-63.85S268.15,17.46,224.1,17.46Zm-1.49,91.4A28.35,28.35,0,1,1,251,80.52,28.35,28.35,0,0,1,222.61,108.86Z"/><path class="cls-1" d="M17.54,272.57H6.66v9.48H18.81v7.4H0V249.53H18.19v7.4H6.66v8.3H17.54Z"/><path class="cls-1" d="M27.62,249.53v23.69c0,8.89,2.93,12.68,6.88,12.68,4.34,0,7.19-3.91,7.19-12.68V249.53h3.86v23.34c0,12.26-4.78,17.23-11.18,17.23-6,0-10.61-4.62-10.61-17.06V249.53Z"/><path class="cls-1" d="M52.16,250.12a30,30,0,0,1,7.32-.89c4.08,0,6.76,1.07,8.6,3.32a11.93,11.93,0,0,1,2.32,7.58c0,5.21-2.5,8.71-5.57,10.13v.18c2.24,1.06,3.6,3.91,4.34,8.05a93.26,93.26,0,0,0,2.24,11h-4c-.48-1.12-1.14-4.56-1.93-9.53-.87-5.51-2.49-7.59-6-7.76H56v17.29H52.16ZM56,268.25h3.9c4.08,0,6.66-3,6.66-7.59,0-5.15-2.76-7.4-6.79-7.4a12.28,12.28,0,0,0-3.77.47Z"/><path class="cls-1" d="M87.4,290.1c-7.84,0-13.28-8.17-13.28-20.25,0-12.68,5.79-21,13.68-21,8.11,0,13.33,8.35,13.33,20.2,0,13.68-6.19,21-13.68,21Zm.18-4.2c6,0,9.47-7.52,9.47-16.59,0-7.93-3.07-16.23-9.43-16.23s-9.51,8-9.51,16.65c0,8.41,3.42,16.17,9.43,16.17Z"/><path class="cls-1" d="M106.08,250.06a29.57,29.57,0,0,1,7.32-.83c3.77,0,6.53,1.19,8.28,3.32a12.72,12.72,0,0,1,2.63,8.35c0,3.61-.78,6.46-2.32,8.53a10.63,10.63,0,0,1-9,4.38,10.05,10.05,0,0,1-3.07-.35v16h-3.81Zm3.81,19.19a9.67,9.67,0,0,0,3.16.42c4.64,0,7.41-3.08,7.41-8.47s-2.77-7.88-7-7.88a14.87,14.87,0,0,0-3.6.41Z"/><path class="cls-1" d="M144.65,270.73H133.21v14.4H146v4.32H129.35V249.53h16v4.32H133.21v12.62h11.44Z"/><path class="cls-1" d="M155.74,276.89l-3.07,12.56h-3.94l10-39.92h4.6l10.08,39.92h-4.07l-3.16-12.56Zm9.69-4-2.94-11.49c-.61-2.61-1.05-5-1.49-7.29h-.13c-.39,2.31-.87,4.8-1.44,7.23l-2.9,11.55Z"/><path class="cls-1" d="M177.79,289.45V249.53H182l9.43,20.2a124.58,124.58,0,0,1,5.26,13l.13-.06c-.35-5.33-.44-10.19-.44-16.35V249.53H200v39.92h-3.85l-9.39-20.26a133.43,133.43,0,0,1-5.48-13.32l-.13.06c.22,5,.27,9.83.27,16.46v17.06Z"/><path class="cls-1" d="M206.2,250.06a41,41,0,0,1,9-.83c4.12,0,7.1,1.07,9.07,3.26,1.89,1.95,3.11,5.27,3.11,9.18s-.92,7.29-2.67,9.48a11.89,11.89,0,0,1-9.64,4.2,8.9,8.9,0,0,1-2.28-.23v14.33H206.2Zm6.62,18.13a7.93,7.93,0,0,0,2.23.23c3.55,0,5.74-2.42,5.74-6.45,0-3.68-1.84-5.87-5.21-5.87a8.93,8.93,0,0,0-2.76.3Z"/><path class="cls-1" d="M232.06,249.53h3.86v35.6h12.62v4.32H232.06Z"/><path class="cls-1" d="M257.66,276.89l-3.07,12.56h-4l10-39.92h4.6l10.09,39.92h-4.08l-3.16-12.56Zm9.68-4-2.93-11.49c-.62-2.61-1.05-5-1.49-7.29h-.13c-.4,2.31-.88,4.8-1.45,7.23l-2.89,11.55Z"/><path class="cls-1" d="M281.86,253.91h-9v-4.38h21.88v4.38h-9v35.54h-3.86Z"/><path class="cls-1" d="M313.29,270.73H301.85v14.4h12.8v4.32H298V249.53h16v4.32H301.85v12.62h11.44Z"/><path class="cls-1" d="M331.7,290.1c-8.72,0-13.9-8.94-13.9-20.31,0-12,5.7-20.91,14.38-20.91,9.08,0,14,9.18,14,20.2,0,13.15-5.83,21-14.47,21Zm.31-7.16c4.51,0,7.1-5.75,7.1-13.57,0-7.17-2.5-13.33-7.1-13.33s-7.19,6-7.19,13.51,2.67,13.39,7.14,13.39Z"/><path class="cls-1" d="M351,250.12a25.32,25.32,0,0,1,7-.89c3.82,0,6.27.89,8.07,2.9a9.72,9.72,0,0,1,2.5,7.05,9.49,9.49,0,0,1-5,8.77v.18c2.8.89,6.09,4,6.09,9.95a12.56,12.56,0,0,1-2.54,8c-2,2.54-5.35,3.73-10.17,3.73a32.79,32.79,0,0,1-5.92-.48Zm3.81,16.35h3.47c4,0,6.36-2.9,6.36-6.75,0-4.62-2.59-6.52-6.45-6.52a12.19,12.19,0,0,0-3.38.36Zm0,19.07a15.34,15.34,0,0,0,3.21.24c3.94,0,7.58-1.95,7.58-7.76,0-5.39-3.46-7.7-7.63-7.7h-3.16Z"/><path class="cls-1" d="M374.31,283.17a10.62,10.62,0,0,0,6.79,2.61c3.9,0,6.18-2.73,6.18-6.81,0-3.68-1.57-5.87-5.56-7.88-4.83-2.37-7.81-5.81-7.81-11.37,0-6.22,3.82-10.84,9.56-10.84a10.54,10.54,0,0,1,6.49,2l-1,4.21a8.89,8.89,0,0,0-5.57-1.9c-4,0-5.57,3.26-5.57,6,0,3.74,1.8,5.57,5.88,7.7,5,2.67,7.49,5.87,7.49,11.73,0,6.16-3.33,11.55-10.3,11.55a12.35,12.35,0,0,1-7.54-2.6Z"/><path class="cls-1" d="M411.66,270.73H400.21v14.4H413v4.32H396.36V249.53h16v4.32H400.21v12.62h11.45Z"/><path class="cls-1" d="M418,250.12a29.93,29.93,0,0,1,7.32-.89c4.07,0,6.75,1.07,8.59,3.32a11.88,11.88,0,0,1,2.32,7.58c0,5.21-2.5,8.71-5.56,10.13v.18c2.23,1.06,3.59,3.91,4.34,8.05a91.84,91.84,0,0,0,2.23,11h-3.94c-.49-1.12-1.14-4.56-1.93-9.53-.88-5.51-2.5-7.59-6-7.76h-3.6v17.29H418Zm3.81,18.13h3.9c4.08,0,6.67-3,6.67-7.59,0-5.15-2.77-7.4-6.8-7.4a12.28,12.28,0,0,0-3.77.47Z"/><path class="cls-1" d="M448.73,289.45l-9.68-39.92h4.16l4.6,19.66c1.23,5.39,2.33,10.31,3.16,14.93h.09c.83-4.62,2-9.65,3.37-14.87l5-19.72h4.08l-10.57,39.92Z"/><path class="cls-1" d="M470.52,249.53v39.92h-3.86V249.53Z"/><path class="cls-1" d="M477.18,289.45V249.53h4.21l9.43,20.2a124.58,124.58,0,0,1,5.26,13l.13-.06c-.35-5.33-.44-10.19-.44-16.35V249.53h3.59v39.92h-3.85l-9.39-20.26a133.3,133.3,0,0,1-5.47-13.32l-.14.06c.22,5,.27,9.83.27,16.46v17.06Z"/><path class="cls-1" d="M528.56,287.67a20.69,20.69,0,0,1-9.12,2.2,13.1,13.1,0,0,1-11.05-5.28c-2.54-3.31-4.12-8.64-4.12-14.86,0-11.91,6.1-20.62,16-20.62a14.44,14.44,0,0,1,7.41,1.84l-1,4.21a11.5,11.5,0,0,0-6.54-1.72c-7.18,0-11.87,6-11.87,16.05s4.47,16.11,11.39,16.11a9.67,9.67,0,0,0,5.09-1.06V272.63h-6v-4.15h9.73Z"/><path class="cls-1" d="M534.12,280.21a13.54,13.54,0,0,0,7.41,2.49c3.07,0,4.69-1.72,4.69-4.38,0-2.43-1.4-3.91-5-5.57-4.91-2.37-8.15-6-8.15-11.91,0-6.81,4.25-12,11.17-12a13.51,13.51,0,0,1,7.54,2l-1.49,7.23a11,11,0,0,0-6.13-1.9c-2.9,0-4.3,1.84-4.3,3.85,0,2.55,1.62,3.67,5.48,5.69,5.22,2.6,7.63,6.28,7.63,12,0,6.7-3.77,12.38-11.88,12.38a15.34,15.34,0,0,1-8.38-2.48Z"/><path class="cls-1" d="M564.59,289.45V272.51l-9.38-23h4.38l4.17,11c1.09,3,2,5.45,2.93,8.23h.09c.79-2.61,1.84-5.21,3-8.23l4.25-11h4.3l-9.86,22.92v17Z"/><path class="cls-1" d="M580.68,283.17a10.62,10.62,0,0,0,6.79,2.61c3.9,0,6.19-2.73,6.19-6.81,0-3.68-1.58-5.87-5.57-7.88-4.83-2.37-7.81-5.81-7.81-11.37,0-6.22,3.82-10.84,9.56-10.84a10.54,10.54,0,0,1,6.49,2L595.28,255a8.89,8.89,0,0,0-5.57-1.9c-4,0-5.57,3.26-5.57,6,0,3.74,1.8,5.57,5.88,7.7,5,2.67,7.49,5.87,7.49,11.73,0,6.16-3.33,11.55-10.3,11.55a12.35,12.35,0,0,1-7.54-2.6Z"/><path class="cls-1" d="M608.38,253.91h-9v-4.38h21.87v4.38h-9v35.54h-3.86Z"/><path class="cls-1" d="M639.81,270.73H628.37v14.4h12.8v4.32H624.51V249.53h16v4.32H628.37v12.62h11.44Z"/><path class="cls-1" d="M671,271.92c-.22-5.57-.48-12.32-.48-17.24h-.09c-1.05,4.62-2.23,9.66-3.72,15.17l-5.22,19.36h-2.89l-4.82-19c-1.41-5.69-2.55-10.78-3.38-15.52h-.09c-.09,5-.31,11.61-.57,17.65L649,289.45h-3.64l2.07-39.92h4.86l5,19.31c1.23,4.91,2.19,9.3,3,13.45h.09c.79-4,1.84-8.42,3.16-13.45l5.26-19.31h4.86l1.85,39.92h-3.77Z"/><path class="cls-2" d="M526.75,116.73c0,64.44-51.74,116.69-115.57,116.69S295.62,181.17,295.62,116.73,347.36,0,411.18,0,526.75,52.24,526.75,116.73Z"/></g><g id="Livello_5" data-name="Livello 5"><path class="cls-3" d="M385.69,88.3c.86.7.55-.51,1.63,1.07l2.71-.54V88.3h1.63l1.08-1.59h1.09c.18-.35.36-.71.53-1.07.83-.47,1.72.23,2.18-.52V83h.54v2.65l1.63.54v1.06c-1.09-.32-.47.08-1.09-.53h-.54l.54,3.19h1.09c-.6,2.35-.91,1.5-1.09,4.25h1.09a6.52,6.52,0,0,0,.54,2.66h-.54v.53h1.08l.54,1.6h-1.08v3.72h.54v.53h-.54v1.07h3.25c.29-2.24.77-1.73,1.63-3.19l5.42.53c-.16-1-1.29-3.29-.54-4.79l1.63-1.06v-.53h-.54v-.53h.54v-1.6h.54V91.5h.54l-.54-1.07,2.17-1.06V88.3l1.09.53V88.3H415c.17-.35.36-.71.54-1.06H415v-.53h.54c.61-.9.33-.74,1.63-1.07-.27-1.16-.82-3-1.63-3.72s-.57.53-1.63-1.06h-.54c-.35-.76.54-1.07.54-1.07.09-1.64-.91-2.52,0-4.25L415,75v-.53h-.54V72.35l1.62-.53,2.71-3.72c.75-.62,1.75,0,2.71-.54.19-.53.36-1.06.55-1.59l2.17-1.6c-.19-.53-.37-1.06-.55-1.59l.55-1.07h-.55v-.53l1.09-.53.54-2.65c1.28-.24,2-.77,3.79-.54V58h.55l.54-.54c.36.54.72,1.06,1.09,1.6h.54v1.59h.54v.53l-1.63-.53c-.8,4.06-2.13,4.05-4.34,6.38-.54.58-.37,1-1.08,1.6v.53h-1.63c-.24,2.09-1.21,5.25-.54,8h.54c.21,1.38-1.54,2.57,0,4.25.44,1.61,1,1.83,2.71,2.13v1.6h4.89c.17-.36.35-.72.54-1.07H434c.18-.36.35-.71.54-1.06h3.25v-.53l1.63-.54.54-1.59H441c.64-.39.65-2,1.08-2.66l1.08-.53c1.15-1.67,1.76-3.51,3.26-4.79a7.51,7.51,0,0,0-2.17-4.79L443.17,67c.19-1.06.37-2.12.55-3.19h-1.09V61.71h-1.08c.18-1.94.36-3.9.54-5.85L441,55.33V53.74h-.55V52.67h-.54l.54-2.65H441c.92-2.8-1.26-4.13-2.72-4.79,0-1.43-.18-3,.54-3.72h1.09l-.54-1.07h.54l1.63-2.12c-.58-.3-.89-1-1.09-1.07h-1.63v-.53h-1.08v-.53c1.89.33,1.5.62,3.26,0l.54-1.6h-1.09V33.53c-2.14-.25-2.65-1.13-3.25,1.06h-.55V31.94h-.54A7,7,0,0,0,435,35.12h-.54V34.06h-1.09c-.26,1.16-.34,1.51-1.08,2.13v.53h-.54V34.06h1.08V32.47h-.54V33l-1.08-.53a5,5,0,0,0-.55,2.12H428V33l-1.63.53v1.06h.55c.16.9-.52.93-.55,1.07v2.66l-1.62-.54v.54l-1.63-.54v.54h-.55v-1.6c-.4.64-1.61.52-2.7.53v1.6h.54v1.06l-2.17-1.06c-.36.53-.73,1.06-1.08,1.59h.54s0,2,.54,1.07V40.44h.54V42h-.54c-1.21.81-2.58-.66-4.34-1.06V42h-1.08v1.59h4.34v.54a7,7,0,0,0-2.71,2.65h-1.09c-.41,1.45-.13,1.22-1.63,1.6.62.6,0,.23,1.09.53v.53h-2.17l-.54,1.6c-.55.35-1.09.71-1.63,1.07l.54,1.06h-1.08c-.08,1.24.07,2-.55,2.65H406.3l.54,1.6c0,.06-.33-.1-.54,1.06h-1.08a3.9,3.9,0,0,1-1.09,2.13h-.54v1.06L402,61.18s0,.39-1.09.53a4.33,4.33,0,0,1-1.62,2.66v.54l2.71-.54v-.53h.54l-.54,1.6a10.19,10.19,0,0,0-2.71.53c-.18-.53-.37-1.06-.54-1.6-2.55.6-2.82,2-6,2.13l.54,1.6-2.71-.54v1.07c-2.07.05-2.26-.11-2.71,1.59l2.17.54v.53c-1.56.72-1.87-.93-2.17-1.07h-1.08c.17.71.36,1.42.54,2.13l-1.09.53.55,1.07h-.55v3.19c0,.06-.33-.11-.54,1.06h1.63v-.53h1.08v.53h-.54v.53h-1.63v.54h-.54l-.54,2.65.54.54c-.54.35-1.09.7-1.62,1.06v2.66l1.08.53C385.33,87.24,385.51,87.78,385.69,88.3ZM424.74,42A2.07,2.07,0,0,1,425.82,41a4,4,0,0,0,1.63,2.12v.53h-1.63V42.57H424.2C424.66,42,424.12,42.49,424.74,42Zm-10.3,8.51H415c-.37.53-.73,1.06-1.09,1.6h-.54C413.71,51.61,414.07,51.08,414.44,50.55Zm-3.8,3.72h.54v1.06h-.54ZM387.32,74c1.08-.32.47.07,1.08-.54,1.09.32.47-.07,1.09.54H390v.53h-.54c-.62.6,0,.22-1.09.53v-.53C387.32,74.16,387.94,74.55,387.32,74ZM410.1,44.7H409c.73,1.67,1.34.29,3.8,0V43.63h-2.17ZM370,73.41h.55l1.08-1.59h.54c.35-1-.31-.76-.54-1.06v.53H370v.53h-.54v.53C370,73,369.65,72.34,370,73.41Zm-14.09,2.13c-1.76.21-1.59.48-2.71,1.06v1.07a9.58,9.58,0,0,1,2.71-1.07Zm7.59,2.13H364v-.53c1.48-.41,1.23-.13,1.63-1.6H364v.53h-1.09v.53C363.52,77.21,363.14,76.6,363.46,77.67Zm-8.13,3.19h-.55v.53h-.54V78.73l-1.62.54a7.45,7.45,0,0,0,1.08,3.19l-1.63.53-.54,1.59a6.55,6.55,0,0,0,2.71.54,3.61,3.61,0,0,1-1.62,1.59c.3.57,1,.87,1.08,1.07v1.59h.54c-.54.7-1.08,1.42-1.62,2.13h-1.09c.32,1-.08.45.54,1.06,1.23,1.23,2.18.8,3.8.53.46.6-.08.08.54.53a12.2,12.2,0,0,1-1.63,1.6c-.66,1.65.89,1.72,1.09,2.12-.19.53-.37,1.07-.54,1.6h-.55v1.6h-.54v1.06a9.52,9.52,0,0,0-2.71-1.06v-1.6h-2.17c-.19,1.59-.05,1.46-1.09,2.13v.53h2.17c-.21,1.72-.49,1.55-1.08,2.66a15.37,15.37,0,0,1-3.8.53c.47.6-.07.08.54.53v1.06c1.5-1.17,2.18,1.3,3.26,2.13V109l2.17-.53v1.07l-2.71.53v-.53l-1.63-.54-.54,1.07a21.81,21.81,0,0,1-4.34,1.06v1.07c.06.07,1.35-.85,2.17-.54v.54h1.08c.5.24.21.94,1.09,1.06l1.08-1.6,5.43,2.13h2.17v.53h1.08l.55,1.07,4.87-.54-1.08-2.12,4.33-2.66v-1.6h.55V108a10.24,10.24,0,0,1-1.63-1.6c-1.09-.49-1.57.45-2.17.54v-.54c-.3-.31-.83.17-.54-.53l1.08-.53-.54-3.72c.16-.44,1.38,0,1.08-1.6h-.54V98.41l-1.08-.54V96.81h-.54l.54-4.78h-.54l-.54-2.13h-1.63v-.53h-1.09v-.54h2.17v-1A5.68,5.68,0,0,0,364,83.52a4.29,4.29,0,0,1-2.71-1.06v-.54c-1.12-.49-2.35.69-2.71.54v-.54c-.34-.67-.67.21-.55-.53h.55c.83-1.28,2.53-1.85,4.33-2.12V78.2a6.72,6.72,0,0,1-3.79-1.6c-1.16.91-.3,1.11-2.16,1.6v1.07h-1.09C355.68,79.79,355.5,80.33,355.33,80.86Zm-2.71-2.66v-.53H351v1.6h-.54v1.59H351A7.59,7.59,0,0,1,352.62,78.2Zm66.69,4.26c-.17.35-.36.7-.54,1.06.08.74.08-.07.54.53s-.07.08.55.53c.46-.6-.08-.08.54-.53C420.05,82.79,420.24,83.05,419.31,82.46ZM349.9,87.78v.52h.54a4.18,4.18,0,0,1,1.09-1.59v-.53H349.9l-.54,1.06C349.44,88,349.44,87.18,349.9,87.78Zm156.72,90.93h-1.08c-.19-3-1.43-3.42-2.17-5.85h-.54c0-.86.92-.65,1.08-1.07v-2.66h-3.79v-.52h-.55c-.6-1.05.78-1.68.55-2.13h-.55c-.57-2-2.1-1.9-3.25-3.19l-4.88,1.06c-1.27,1.41-2.53,2.83-3.8,4.26-1.11.53-3.58-.57-3.79-.54v.54h-1.63l-.54,1.06h-3.8v-.54h-.54v.54h-1.63l-.54-1.06-2.72.52c-.36-.52-.71-1.06-1.07-1.59l-2.72.53c-.33-1.06.07-.45-.54-1.06v-.53H467V167h-6l-.54,1.06h-1.09l-.54,1.06a10.87,10.87,0,0,1-3.8,1.6c-.32,1.06.08.46-.54,1.06-1.17,1.06-5.45.6-7.59.53.21,1.8,0,1.72,1.63,2.13V175h-2.17v1.6h-7.6a3.62,3.62,0,0,1,2.18-2.66v-.53l2.16.53v-.53h3.26v-1.07a17,17,0,0,1-3.8-1.59,10.06,10.06,0,0,1-1.08-3.72h-1.09v-.53c.85.08.83-1.5,1.09-2.13h.54l-.54-1.06h.54v-1.07h1.63v-.53h.54a5,5,0,0,1,0-3.19c.42-1,1.64-2.17,2.17-3.19h1.08a8.16,8.16,0,0,0-.54-3.19c1.8-1,3-3.42,3.8-5.32l2.71-.53v-.53a5.67,5.67,0,0,1,2.17.53,2.13,2.13,0,0,1-1.09,1.06c1.4,1.41,3.49.95,5.42.53.47.6-.07.09.55.53l-1.63,2.13-1.63.53v1.07h3.26l.54,3.72h1.63c.72-.88,1.45-1.77,2.16-2.66H466l.54-1.06H467v-1.07h-1.63c-.18-.53-.36-1.06-.55-1.59-1.28-.34-1-.15-1.62-1.07-.61-.45-.08.08-.54-.53l2.16-1.59v-.53H466c.36-.54.72-1.07,1.09-1.6l3.25-.53.54-1.06,1.62-.53c.19-.36.38-.71.55-1.07l1.09.53v-2.12c.67-1.41,2.54-2.33,4.33-2.66V134l-1.08-.53c-.23-.72.19-.12.54-.54v-1.06h-.54l1.08-2.12a2.16,2.16,0,0,1-1.08-1.07l-7-.53-1.08-1.6c-1.47-.42-1.26.93-1.63,1.06h-4.34a8.8,8.8,0,0,0-1.62-3.72l-2.72-.53v-.53h-.54l.54-1.59h-.54a4.63,4.63,0,0,1-1.09-2.13c-2.72.25-3.7,1.16-5.42,2.13a19.27,19.27,0,0,1-2.17-5.32c2,0,2.49.08,3.25-1.07.62-.45.09.08.55-.53a2.13,2.13,0,0,1-1.09-1.06h-1.62v-1.6h-1.09c-.4-1.46-.91-1.6-1.63-2.66h-.54a1.2,1.2,0,0,1,.54-1.59c-.35-1.07-.72-2.13-1.08-3.19h-.54v-.53c-.62.16-1.49,1-2.71.53l-.55-1.07-1.62.54v-.54h-1.09c-.86-.65,0-1.61-.54-2.65l-1.63-1.07c.13-.61,1-1,.54-2.13l-1.08-.53.54-3.19h-.54V89.9h.54c.19-.89.37-1.78.54-2.66l-2.71.54v-.54H434.5v-.53l-2.17.53v.54c-.73.23-.07-.22-.54-.54h-.54v.54h-1.63v.52l-1.63.53c.36,2,.29,1.86.54,3.73h2.17l-.54,1.59h.54v.54l-1.08.53c-.15.45,1.06,1.5.54,2.65a6.06,6.06,0,0,0-1.09,1.07h-2.16v-.53h-.55l-.54-2.66a8.18,8.18,0,0,0-3.26,1.06c-.73,2-.3.45,0,2.13l-1.08.53c-.48,1.25.31,2.58.55,3.19h-1.09l.54,5.85-2.71-.53-.54,1.06c.43.63.7-.2.54.54h-.54v1.06l-4.34-.53-.54-1.6-6,.53v1.07l-4.88.53c-.32,1.06.08.46-.54,1.06-.46.6.07.09-.54.54a5.13,5.13,0,0,1-.55-2.13,5.15,5.15,0,0,1-2.16-1.07v-.53l-5.43.53v-1.59l-2.71-.53-.54-3.73c1.18.26,1.54.34,2.17,1.07h.54l.54-1.6h-.54a4.54,4.54,0,0,1-1.08-2.66c1.47-.4,1.23-.12,1.62-1.59h1.63c-.61-2.18-1.05-.83-1.63-1.6v-.53c.88-.36,1-2.39,1.08-3.72-1.47.37-1.22.72-2.7,1.06v1.6h-1.09v1.06c-1.7-.52-.81-.29-2.71,0l-1.08,4.79h1.08c-.18,1.56-.71,6.65,0,7.44V109c-.61-.45-.08.08-.54-.53-1.38.15-1.82-.07-2.17,1.07h.54v.53H384.6c-.17-.53-.36-1.07-.53-1.6h-2.71v1.6a9.36,9.36,0,0,0-4.89-1.07,5.54,5.54,0,0,0,0,3.2,5.72,5.72,0,0,0-2.17.53V111.7h1.09v-1.59h.54v-.53h-2.17l-.54,1.59h.54v.53l-1.09.54c-1.34,1.59-.83,1.14-.54,3.19l-3.25-.54c-.33,1.07.07.46-.54,1.07-.82.63-3.89.22-6,0a5.37,5.37,0,0,1-1.62,3.19c-1,1-2.75,1.12-4.88,1.06v1.07c-2.15-.43-2.83-1.3-4.34-2.13v-1.07h-1.09l-.54,4.26-3.25-.54v-.52c-.91-.61-.76-.33-1.09-1.6h-4.88c.18.53.37,1.06.54,1.6h-.54c-.18.52-.36,1.06-.54,1.59h.54c.18.53.37,1.06.54,1.6l1.63.53.54,1.06,1.09-.53v2.66h1.08a5.78,5.78,0,0,0,0,4.78l1.09.54-.55,1.59h-.54l.54,2.13-1.62.53c-.43,1.86-1.38,2.9-2.17,4.26v1.06h-.55a5.66,5.66,0,0,0-1.62,2.66c-1.72-.73-2.52-1.51-4.88-1.6l-.54-1.59c-2.1-.06-3.19-.17-4.34-1.07l-.54-1.06h-1.63v-.53h-.54v-1.07c-2.1-.24-2.24-.87-4.34-1.06l-.54-1.6c-1.31-.21-2.48-.86-4.34-.53-.07,0-.21.88-1.08.53v-.53a6.06,6.06,0,0,0-2.17.53c.18,1.07.35,2.13.53,3.2-.07.74-.61-.22-.53.53l.53.53h-1.08a3.91,3.91,0,0,1-.54,2.13h-.54l-.54,3.72-2.17,1.59v1.07l-5.42,4.25v1.6l1.63-.53c-.52.95-.78.82-1.09,2.12h1.09c-.37.53-.73,1.07-1.09,1.6h-.54v1.59h-.54c-.5.69-.41,1-1.09,1.6.59,2.17.23.65,1.63,1.59v.54l1.63.53v.53l1.62-.53v1.06h1.62c.57,2.42,1.62,4.27,1.63,7.44h2.71c.18-.35.37-.7.55-1.06a6,6,0,0,0,2.7.53c.15,0,.16-.77,1.09-.53v.53l2.71.53v.54l2.17.53v.53H326v.53h.54v-.53h.55l.54.53v-1.06a4.51,4.51,0,0,0,2.17-.53v-.54h3.8c.17-.53.36-1.06.54-1.59.85-1,2.58-1.44,4.33-1.6V167H338c.19-.89.37-1.78.55-2.66a12.12,12.12,0,0,0,3.25-2.13l.55-1.06c.82-.5,1.67.22,2.17-.53v-1.07l9.76-1.06c.54-1.95,1.09-3.9,1.63-5.85H357c.17-.36.35-.71.53-1.06,1.47-.58,3.88,1,4.34,1.59,1.48.41,1.24.13,1.63,1.6l4.88.53.54-1.06,4.88-1.07,1.08-1.59,1.63-.54c1.07,1.61.5.24,1.63,1.07l2.17,2.66h.54c.18,1.24.36,2.48.55,3.72,0,.75-.67-.21-.55.53l1.08.53c.19.89.37,1.78.55,2.66l3.25,2.66.54,2.13,3.8,2.66h1.08c.55.88,1.09,1.77,1.63,2.65l1.62.54v1.06h.55c-.18.53-.36,1.06-.55,1.59.91.19,1.82.36,2.72.53l1.08,5.86h-.54V183h-.54V184h-.54c-.18.53-.36,1.06-.55,1.59l1.63.53a3.58,3.58,0,0,1,1.63-1.59v-2.13h1.62c.19-.53.37-1.06.55-1.59H402c.55-1.76-1.7-1.37-2.17-2.13v-1.07c1-.87.93-1.85,2.17-2.66v-.53c2.09.57,1.71,1.59,3.8,2.13,0,0,0,2,.54,1.06v-.53c1.08-.32.46.08,1.08-.53-1.53-1-1.21-2.49-2.16-3.19h-1.09c-1-.61-6.05-3.59-5.42-5.32h.54v-.53c-1.23-.69-2.78.18-3.79-.53-.19-.53-.37-1.06-.55-1.6l-1.63-1.06v-1.06h-.54l-.54-2.13h-.54V158.5h-.55c-.17-.53-.35-1.06-.54-1.6l-1.62-.53c-.19-1.41-.36-2.83-.55-4.25,0-.11.7-.2.55-1.07h-.55v-2.12c2.57-.08,3.42-.69,5.43-1.07a5,5,0,0,1,.53,2.13h-1.08c.3,1.85.55,1,0,2.66h.55c.46.6-.08.09.53.53v-.53h.55v-1.6h.55v-.53H396v.53c2,1.33.34,1.1,1.09,3.2h.54v1.59h.54V158h.55a4.35,4.35,0,0,1,1.08,2.13c2.52.35,2.52,1.62,4.88,2.12v1.07h.55l1.62,2.12,1.63-.53c.86.71-.61,1.08,1.63,1.6v1.06c1.47.4,1.23.12,1.62,1.59,1.54,2.26-2.56,6.37,1.09,8.51a3.71,3.71,0,0,1-1.63,1.6l.54,1.07h2.17v1.06H415v1.06l2.17.53v.53h-1.63a9.2,9.2,0,0,1,1.08,2.66l8.14.53v1.07l-7.05-1.07c-.33,1.07.07.46-.54,1.07a4.19,4.19,0,0,0,1.08,2.65h.54q-.27,1.08-.54,2.13h.54v.53l1.63-.53.54,1.6c.73-.18,1.45-.35,2.17-.54v.54h.54c-.35-1.66-.93-2.38-1.09-4.26,1.29.34,1,.15,1.64,1.07h1.08a9.2,9.2,0,0,1-1.08-2.66l3.79.53a6.46,6.46,0,0,1,0-3.72c-2-.51-2.77-1.79-4.34-2.66,0-3-.66-4.21-1.09-6.39,1.09-.31.47.08,1.09-.53,1.54,1.55.45,3,3.26,3.73v-1.6h-.55v-.53a10,10,0,0,0,2.71,1.06v-1.59h-1.62V176c-.61-.59-.23,0-.54-1.06.71-.28-.16-.21.54-.53h1.62v-.53c.21.23.91-.13.55.53h-.55c.19,1.11.05.49.55,1.06V176c1,.34.77-.3,1.08-.53h.55l-.55-1.59h2.71v.53H435V175h.54l.54-1.06h.54c-.17.53-.36,1.06-.54,1.59h1.09c-.18,1.07-.36,2.13-.55,3.2l-1.08.53.54,1.6h2.71v.53c-2.05.35-1.88.27-3.79.53V183h1.62v-.53h.55c-.18.35-.36.71-.55,1.06h1.09v-1.06h1.08v3.19h.55v.53a5.32,5.32,0,0,0-2.17-.53v2.13h2.71v.53h.54l-.54,2.12h.54a3.82,3.82,0,0,1,.55,2.13h3.25l-.54,1.6.54-.54c1.08.19,2.17.36,3.25.54l1.09,1.59h1.08v.54c1.87.52,1.66-.86,2.17-1.07h1.63v-2.13c2.62.28,8,2.92,10.85,2.13v-.53h2.16l2.17-2.66h1.09v-.53l3.79.53v-.53a5.45,5.45,0,0,1,2.17-1.07l-.54,3.73h.54c.46.6-.07.08.54.53.62-1.75-.07-2.31,1.63-3.72v-.54h3.26v-.53h1.08l.54-1.06,4.88.53.54-1.06,2.72-.53.54-1.6c3.16-.61,5.54-2.08,8.68-2.12V183c2.41-.25,4.18-.88,6.5,0,.62-.9.33-.74,1.63-1.06C507.66,180.67,507,180.17,506.62,178.71Zm-92.18-12.23c.14.12,1.48.54,1.08,1.06C415.52,167.54,415.35,167.62,414.44,166.48Zm.54,4.25h.54v1.59H415Zm.54,5.85.54-1.07h.54C417.09,175.74,415.56,176.55,415.52,176.58Zm8.68-3.72s-2.12-.07-1.09-.54c.13-.73.51.22.54-.53,1.08.32.47-.07,1.09.53C424.12,172.79,424.65,172.25,424.2,172.86Zm11.92-1.07-.54.53V170.2h.54c.47-.6-.07-.09.54-.53a9,9,0,0,1,1.09,2.65ZM332.55,98.94l1.09.53c-.19.53-.37,1.07-.55,1.6h.55v.53a62,62,0,0,1,9.75.53c1.27-2.57,3.16-4.2,3.26-8,2.11.61.94.39,2.71-.53V89.37l-1.63-.54a.78.78,0,0,1-1.08.54l-.55-1.07-2.16-.52a2.15,2.15,0,0,1-1.09,1c.62.9.33.74,1.63,1.07-1.68,1.48-4.86-.17-6.52-.53V91.5h-.53V92h-1.09c.18.7.36,1.41.55,2.12H338v.54l-2.16.53c.33,1.06-.08.46.54,1.06v.53l-1.62-.53v1.06c-.6.61-1.48.51-2.72.53v1.6C332.38,100.13,332.55,98.94,332.55,98.94Zm19.52-9.57.55-1.07c-.09-.74-.08.07-.55-.52-.61.59,0,.22-1.09.52v.53h.55v.54Zm74.84,0h-.55v-.54l-1.62.54c.18.7.36,1.42.54,2.13L424.2,92v1.06A3,3,0,0,0,426.36,92h.55l-.55-1.6h.55ZM416.6,95.22V94.15H415v.54h-.54c-.19,1.06-.37,2.12-.55,3.18H415V96.81c.11-.25,1-.16,1.08-1.06h-.54v-.53Zm-64.53-.53-1.63.53v1.06h1.63Zm44.47,10.1a5.1,5.1,0,0,0,.54-2.13h1.08a5.58,5.58,0,0,1,.55-2.12h-1.09v1.06l-2.16-.53a4.2,4.2,0,0,1-1.1,1.59c.19.53.37,1.07.55,1.6Zm7,0-.55,1.59a5.27,5.27,0,0,0,2.18.54c-.35-1.26-.16-1-1.09-1.6C403.67,104.72,404.2,105.24,403.59,104.79Zm-9.23,2.13h.55c-.33-1.07.08-.46-.55-1.07Zm74.85,44.13c1.08-.32.46.08,1.08-.53l-1.63-.53v1.6C469.28,151.13,468.75,151.66,469.21,151.05ZM374.3,164.88V166c.54-.19,1.09-.36,1.63-.54a4.62,4.62,0,0,1,.54-2.66H377l-.55-.53v-.53H377v-2.13h.54V158.5c-1.41.81-1.83,1.74-3.8,2.13C373.5,162.08,373.08,163.66,374.3,164.88Zm4.88-4.25h1.63v-1.07h-1.63ZM347.73,167v1.06c1.48.37,1.23.72,2.71,1.06.62-.59,0-.22,1.09-.52-.19-.54-.36-1.07-.55-1.6Zm6.51,0h-.54v1.06l1.63.54v-1.07C354.24,167.22,354.86,167.62,354.24,167Zm16.27,1.06v5.32H370c-.18.7-.35,1.42-.54,2.12.55.42.54.66,1.09,1.07v.53c1.24-.41,1.5-.87,3.25-1.07.22-1.08.53-1,.54-1.06v-2.66h.54c.19-.7.37-1.42.55-2.12h.54l-.54-3.19Zm-27.66,1.6h1.63v-1.06h-1.63ZM434,177.11c.31-1-.21-1.23-.55-1.6V176h-.54l.54.54C433.48,176.68,433.36,177.58,434,177.11Zm-2.17,2.66h.54v-.53h.54v-.53l-1.08-.54Zm-40.13,4.79v.53h-1.09v.53c-1.52.41-2.79-.86-3.25-1.59a11.16,11.16,0,0,0-4.34.53,4.07,4.07,0,0,0,3.25,2.12v1.07c.38.62,2.1.64,2.72,1.06v.53c1.18.94,2,1.79,3.79,2.13,0-2.84.56-5.11,2.17-6.38v-.53l-2.17.53C392.4,184.87,392.69,184.26,391.66,184.56Zm43.38.53v1.59s2.08,0,1.08-.53h-.54v-1.06Zm-19.52,1.59-1.63-.53v1.07h1.63Zm14.1,1.07c-.62-.9-.33-.75-1.63-1.07.33,1.07-.07.46.54,1.07v.53h1.63C429.7,187.68,430.23,188.2,429.62,187.75Zm-13.56,1.59v-1.06h-1.62C415.05,189.17,414.76,189,416.06,189.34Zm15.73,0v-1.06h-1.63C430.78,189.17,430.49,189,431.79,189.34Zm6.5-1.06h-.54v1.59h1.63v-1.06C438.3,188.49,438.92,188.88,438.29,188.28Zm-8.13,4.25v-1.06h-1.09v1.06Zm2.71.53h.54c.47.61-.07.09.55.53.46-.59-.08-.08.54-.53-.35-1.26-.15-1-1.09-1.59l-.54,1.06Zm9.76,1.07h.54v-.54h-2.71v1.07h2.17Zm.54,2.13h-.54c.47.6-.07.08.54.52.47.61-.07.09.55.54l.54-1.6C443.18,196,443.79,195.64,443.17,196.26ZM439.92,200H441v-1.59h-1.09ZM436.66,201a3.85,3.85,0,0,1-2.16.53v-1.06l-8.14-.54c-.32,1.07.08.47-.54,1.07v.53a21.31,21.31,0,0,1,4.88,1.06H434v-.52h.54v.52h2.16v-.52c.62-.46.09.07.55-.54h-.55Z"/><path class="cls-4" d="M355.87,36.23c0-.12,0-.24-.12-.27l0,0-.05,0s0,0,0-.05l.05,0c-.05-.14-.06,0-.13-.11s0-.08-.06-.13a.42.42,0,0,0,0-.1l-.41-.1a1,1,0,0,0,0-.1l-.15-.05a1.47,1.47,0,0,0,.06-.14c-.19-.11-.13-.13-.23-.26a.74.74,0,0,1,.23-.3l-.09,0,0-.09a1.24,1.24,0,0,0-.44-.18l0,.1-.41-.1a3,3,0,0,1,.45-.43l.1,0a1.54,1.54,0,0,0,.17-.83l.09,0a.36.36,0,0,0,0-.09l-.09,0c0-.11,0,0,0-.12s0,0,0-.06a1.09,1.09,0,0,0-.13.17l-.1,0a.42.42,0,0,1,0,.1,1.87,1.87,0,0,1-.41-.38c.14-.23.13-.11.31-.21l.05,0a1.29,1.29,0,0,0,.26-.51H355l.08-.08.18.13a1,1,0,0,1,0-.17c.18,0,.28,0,.39-.12l-.31-.07,0-.09c-.22-.1-.44-.2-.58-.11l0,.09,0,0a.66.66,0,0,0-.27.23l-.39-.15a1.43,1.43,0,0,0-.17.43c-.14-.1-.13-.18-.29-.28,0-.07,0-.12,0-.06a1.31,1.31,0,0,0-.12-.11c0-.1.05-.2.07-.31l.1,0c0-.11.08-.22.13-.33l-.05,0c0-.14,0-.11-.09-.2a1.54,1.54,0,0,0,.08-.19c-.16,0-.15,0-.33,0,.09-.2.17-.34.07-.47l0,0-.17,0c-.2-.19-.34-.08-.57-.11,0-.1,0,0,0-.11s0,0,0-.07a.42.42,0,0,0,0,.1.58.58,0,0,0-.26,0l0-.07-.16.27.1,0c-.07.21-.14.42-.2.64l.05,0s0,.1-.07.14l0,0c0,.05-.16.1-.14.22l.05,0c-.21.27-.2,0-.35,0l0,.05c-.16,0-.07.11-.3,0a.69.69,0,0,0,0,.1l-.26-.05v-.16l0,0,.09-.24a.54.54,0,0,1-.06-.13,2.84,2.84,0,0,0-.31-.06.36.36,0,0,1,0,.09l-.14-.06a.44.44,0,0,1-.13.18l0,0s0,.09-.05.14h-.12l-.12.29-.05,0a1.47,1.47,0,0,1-.1.13c-.26,0-.23,0-.39-.15a1.19,1.19,0,0,1,.1-.52c-.12,0,0,.06-.09.08a.9.9,0,0,0-.18-.12c.06-.19,0-.18.15-.23,0,0,0,0,0,0l-.41-.11s0,0,0,0l-.47-.24a1,1,0,0,1-.3.32c0,.08,0,0,.08.09-.08.29,0,.54-.07.86l.09,0c-.06.08,0,0-.08.07s0,0,.08.09a1.75,1.75,0,0,1-.19.59s-.08,0-.08.08h.05l0,.06-.09,0a2.6,2.6,0,0,1,.07-.31l-.05,0,.09-.08h-.05c0-.06.13-.05.12-.17s-.07-.1-.1-.16l0-.37-.09,0,.12-.17c-.08-.15-.05-.2-.2-.35l.12-.29-.1,0,0-.21-.1,0a.25.25,0,0,0,0-.09.64.64,0,0,1-.22-.14l0-.05-.39-.15,0,.1-.14-.06a2.33,2.33,0,0,0-.17.26,1.27,1.27,0,0,1-.53-.09l0,.09-.1,0a2.44,2.44,0,0,0-.1.24l-.15-.06s0,0,0-.05l0,0c-.12.45,0,.76-.26,1.23-.16-.07-.21-.12-.33-.18a2.31,2.31,0,0,0,.13-.45l-.1,0a1.54,1.54,0,0,0,.08-.19c-.13.06-.18-.13-.25-.21s.05-.13.07-.19l-.09,0c0-.13.07-.27.1-.4l-.09,0c0-.09,0-.17,0-.26l-.15-.06a.36.36,0,0,0,0-.09,1.69,1.69,0,0,1-.49,0c-.07.12-.47.61-.46.87l.07.09,0,.1h.05a.42.42,0,0,1,0,.1l.05,0-.21.52.1,0a.8.8,0,0,0-.26.34s-.18-.07-.11,0l.1,0c-.07.08,0,0-.09.08s0,0,0,0l-.13-.1a.36.36,0,0,0,0-.09l-.26-.05a2.76,2.76,0,0,0,0-.37l-.25-.1s0,.1-.05.15c-.24,0-.28.07-.43.22l0,0c0,.06-.05.12-.08.19l0,0a1.54,1.54,0,0,0-.08.19l0,0a.63.63,0,0,0,0,.09l-.19,0-.15.38,0,0c-.09.16-.18.33-.26.5-.09-.06-.05,0-.08-.08s.17-.24.19-.48l-.05,0,.12-.29h-.05l0-.22-.05,0c.09-.16.18-.33.26-.5-.15-.1-.14-.18-.28-.28a.36.36,0,0,1,0-.09,2.82,2.82,0,0,1-.32-.18c0-.05,0-.1.05-.15l.2.08a.63.63,0,0,0,0,.09.43.43,0,0,0,.4,0c.13-.07.11-.28.22-.42s.31-.25.31-.49h0a.42.42,0,0,1,0-.21l.1,0a.3.3,0,0,1,0-.1l-.1,0c0-.06.05-.12.08-.19l-.14.06c0-.08,0-.07-.06-.14a.36.36,0,0,0,0-.09l-.14-.06V28.3l-.27-.16a2.34,2.34,0,0,0,.09-.24l-.07-.08c0-.16.09-.08-.09-.21a.36.36,0,0,0,0-.09c-.14-.1-.13-.19-.22-.3a.93.93,0,0,1,.05-.1l-.3-.11c.06-.23,0-.34.05-.54l-.1,0A.58.58,0,0,0,342,26s0,0,0,0a.39.39,0,0,1-.26-.05c-.06-.05,0-.06,0-.07l-.09.08a.13.13,0,0,1-.12-.11,1.14,1.14,0,0,0-.68-.15l-.14-.05a.08.08,0,0,0,0,0l.05,0-.09.08,0,0,0,.05-.09,0a.36.36,0,0,0,.1.15c-.09,0-.17,0-.25.07l.05,0-.09.08h0l0,.1c.18.08.21.07.19.24h.56l0,0,.1,0a.36.36,0,0,0,0,.09l.14.06c0,.05,0,.1-.05.15l-.32-.18,0,.05c-.15,0-.33-.11-.45-.13l-.06.14.1,0s0,0,0,.05l0,0c.05.17-.13.09.07.24l0,.1.4.27c0,.14,0,.11.08.2l0,.1.14.05a.38.38,0,0,0,0,.39l-.09.24-.13-.1a1.67,1.67,0,0,1,.08-.2l-.2-.07c0-.07.05-.13.08-.19l-.1,0c0-.12,0-.12,0-.23l-.1,0-.08.08s.07.06,0,.11h0a.08.08,0,0,1,0,0l-.18-.12a.3.3,0,0,0,0-.1l.15.06v-.16c-.24-.11-.15,0-.14-.22l-.24-.1a1.52,1.52,0,0,1,0-.21l.05,0a.43.43,0,0,0,0-.05l-.22-.14a.36.36,0,0,1,0-.09l-.2-.08s0,0,0,0l-.37-.09a.36.36,0,0,1,0,.09l-.09,0c0,.08-.18.31-.25.34l0,.05-.31-.07-.14.5.15.06c0,.12,0,.09,0,.18a.43.43,0,0,0,0,.05.94.94,0,0,0-.15-.06.42.42,0,0,1,0-.1c-.11,0,0,0-.12,0s-.12,0-.2.09l-.05,0c-.07.08,0,.08,0,.11l-.12.29a1.71,1.71,0,0,0,.47.51c-.07.09,0,0-.09.08s0,0,0,.05a3.34,3.34,0,0,0-.32-.18.42.42,0,0,0,0-.1l-.1,0,0-.1-.14-.05c0-.08,0-.15,0-.21-.23-.13-.39-.24-.56,0l.1,0a2.44,2.44,0,0,0-.1.24l.08.09-.06.14.05,0a1.35,1.35,0,0,0-.12.17c-.24-.11-.17-.17-.34-.29,0,.08-.22.05-.25.13s-.14.25-.16.31.15.2.1.32c.26.1.26.18.45.28a2,2,0,0,1,0,.26l.2.08c.06,0,0,.05,0,.07a.34.34,0,0,1,.09-.08l.24.09s0,0,0,0,.09,0,.21,0a.36.36,0,0,0,0-.09l.15.05s0,0,0,0a.85.85,0,0,1,.37.08l0,.05a.53.53,0,0,0,.28,0l.06-.14a3.53,3.53,0,0,0,.47.07.45.45,0,0,1,0,.11l.3.23a.05.05,0,0,0,0,0l.25.09a.37.37,0,0,1,0-.11l.17.12a1.47,1.47,0,0,0-.1.13.68.68,0,0,0,.17.12c0,.18.06.16,0,.34l.29.11a2.33,2.33,0,0,0,.17-.26l.2.08a.73.73,0,0,0-.05.09l.06,0c0,.13.08.07.07.25l-.2-.08a1,1,0,0,0,0,.1c-.18-.06-.22-.05-.32.09l-.14-.06s0,0,0,0l0,0-.07.14-.14-.05c-.09.12-.12.13-.27.11l-.13.17-.1,0-.18.32a2.47,2.47,0,0,0,.37.2c0,.1,0,0,0,.11l0,.05.24.1v0l.09,0s0,0,0,0c.15.13.34,0,.49,0s.08-.13.18-.16a.43.43,0,0,0,0-.05l.15.07c-.14.25-.3.24-.43.49l-.5-.14,0-.1-.51-.25s0-.07-.11-.15l-.11.12a.86.86,0,0,1-.39-.27c-.06.05-.09,0-.14.06a1,1,0,0,0,0,.1l-.08-.09a.59.59,0,0,1-.06.14c-.14-.07-.28-.14-.41-.22l0,.05-.22,0a.3.3,0,0,1,0,.1l-.09,0a.36.36,0,0,1,0-.09l-.05,0-.09.07a1.54,1.54,0,0,1-.43-.05l-.11.12-.29-.11,0,0a.4.4,0,0,0-.27-.16l-.09.08-.1,0c-.11.2-.14.1-.25.34l.1,0,0,.49.1,0,0,.1c.11,0,0,0,.12,0,.37.16.43.12.65-.08l.55.16,0,0,.59.23,0,0,.61.29s0,0,0,0l0,0s0,.08,0,.12a1.64,1.64,0,0,1,.22.14c-.08.15-.1.16-.24.18a1.47,1.47,0,0,0-.1.13l.1.15-.06.3.09,0-.08.08,0,0-.06.3a1.84,1.84,0,0,1,.2.19.79.79,0,0,0,.22-.25l.19.08-.1.12h-.06a1.21,1.21,0,0,1,0,.14l-.05,0a.36.36,0,0,0,0,.09H339a.08.08,0,0,0,0,.11s0,0,0,0l-.05,0a.78.78,0,0,0,0,.14l-.06,0c0,.07-.05.13-.07.19l.05,0s0,0,0,0a.79.79,0,0,1,.36.09l-.06.14-.1,0c0,.1-.09.19-.05.26l.15,0s0,.09.06.14l0,.1c-.18-.08-.29-.15-.42-.22a1,1,0,0,0-.15.38h-.17a.36.36,0,0,1,0,.09c-.24-.08-.31,0-.52-.09l-.13.17-.24-.09.13-.34.1,0s0,0,0-.05l-.2-.07,0,0a.51.51,0,0,0-.16-.17l-.18.31-.05,0a2.27,2.27,0,0,0-.29,1l.39.15.08-.08.57.28,0,0,.39.15a.3.3,0,0,0,.08-.08.41.41,0,0,1,.28.17s0,0,0,0L339,38l0,0c.1,0,.15,0,.23,0l0,0,.1,0,0-.09.29.12a.92.92,0,0,1,0,.16l.22.14,0,.09c.13-.05.2.19.4.27l0,.21.1,0-.05.09.11,0a.3.3,0,0,0,0,.1l.09,0,0,.1.09,0,0,.1c.16.11.15.23.32.34l0,.21a.47.47,0,0,1,.22.14l0,0c.05,0,.12,0,.12,0l.13.1s0,0,0,0l.34.13s0,0,0,0l.29.12,0,.09a.44.44,0,0,1,.18.13.08.08,0,0,0,0,0l.19.07v.12l.1,0s0,0,0,.05l.09,0a.43.43,0,0,0,0,0l.24.09a3.2,3.2,0,0,0,.89.46.3.3,0,0,1,0-.1l.29.12a.3.3,0,0,1,0-.1,1.11,1.11,0,0,0,.87.06l.05,0,.06-.14h.16l0,.06a1.34,1.34,0,0,1,.07-.18l.05,0c.07-.07.2-.27.28-.28l.1,0,.06-.15,0,0c.13-.07.11,0,.23-.13l.15,0,0,0L346,41a.08.08,0,0,0,0-.05l.1,0,0,0,.29.12s0,0,0,0l.47.24.09-.08.21,0,0,.09.1,0c.07-.08,0,0,.09-.07a.14.14,0,0,1,0-.06,1.09,1.09,0,0,0,.17.13l.06-.14.09,0a.93.93,0,0,1,.05-.1l.14.06,0-.1.1,0,0-.1.11,0,.14-.22.21,0c.07-.09,0,0,.09-.08l0,0,.15.06a.58.58,0,0,1,.05-.14l.2.08.12-.18.1,0,.13-.17c.22.07.22,0,.43.06a.3.3,0,0,1,0-.1l.19.07a.36.36,0,0,1,0-.09l1.14.39a1.38,1.38,0,0,0,.27-.4l.15.06,0-.09c.12,0,.13,0,.22,0a.08.08,0,0,1,0,0l.09,0,0-.05.2.07c.07,0,0,0,.07,0s.11-.18.16-.28l.05,0a2.44,2.44,0,0,1,.1-.24l0,0c0-.06,0-.11,0-.17l-.1,0,0-.1a.55.55,0,0,0,.52,0l.05,0c0-.11,0-.22,0-.32l.49.18v0c-.05,0,0,0,0-.07l.05,0s0,0,0-.05l-.05,0,0-.05a.46.46,0,0,0,.32-.09l.14,0,.06-.14.15.06V39l.1,0c.05-.19.1-.28.15-.49l.19.07,0,0c.19,0,.26-.17.43-.22l.08-.2h-.05a1.18,1.18,0,0,1,0-.21l-.05,0c0-.12-.08-.32.1-.4.08-.23.06-.33-.1-.44a1.21,1.21,0,0,1,.05-.14c.11,0,0,0,.12,0s0,0,.11-.12l.05,0c.09-.19.18-.37.28-.56Zm-15.3,3.94s-.16.11-.14.22l0,0s0,0,0,0C340.71,40.49,340.79,40.31,340.57,40.17Zm-.82.51.09,0a.36.36,0,0,0,0-.09l-.09,0A.3.3,0,0,0,339.75,40.68Z"/><polyline class="cls-3" points="465.2 199.63 465.22 199.97 465.81 200.72 465.27 200.75 465.11 201 464.93 200.89 464.39 200.93 464.26 201.62 462.95 202.26 462.25 202.42 462.17 202.54 462.2 202.99 461.84 203.01 461.63 202.57 461.01 202.62 460.01 202.45 459.73 202.25 459.7 201.79 459.41 201.58 459.1 200.81 459.26 200.69 459.46 200.91 459.73 200.89 460.4 200.16 460.75 200.15 461.3 200.33 461.47 200.1 461.6 199.41 461.49 199.08 462.48 199.24 463.64 199.16 464.26 199.01 465.57 198.48 466.69 197.73 467.56 197.33 466.8 198.06 466.12 198.56 465.2 199.63"/></g></g></svg>